<svg width="332" height="140" viewBox="0 0 332 140" fill="none" xmlns="http://www.w3.org/2000/svg">
<path d="M88.1003 105.325C85.2416 105.325 82.6389 104.706 80.2923 103.469C77.9883 102.189 76.1536 100.333 74.7883 97.9012C73.4229 95.4265 72.7403 92.4825 72.7403 89.0692C72.7403 86.4665 73.1883 83.5652 74.0843 80.3652C76.0469 73.5385 79.1189 68.7172 83.3003 65.9012C87.5243 63.0852 92.0256 61.6772 96.8043 61.6772C101.156 61.6772 105.082 63.2558 108.58 66.4132L110.5 64.5572C111.567 63.6612 112.484 63.0425 113.252 62.7012C114.02 62.3598 114.916 62.1892 115.94 62.1892C117.05 62.1892 117.946 62.4665 118.628 63.0212C119.311 63.5332 119.652 64.2372 119.652 65.1332C119.652 65.4745 119.588 65.8798 119.46 66.3492L117.156 74.4132C116.73 75.7785 116.218 76.7385 115.62 77.2932C115.066 77.8478 114.298 78.1252 113.316 78.1252C112.292 78.1252 111.375 77.8692 110.564 77.3572C109.796 76.8452 108.9 75.9278 107.876 74.6052C106.511 72.8132 105.295 71.5545 104.228 70.8292C103.204 70.0612 102.074 69.6772 100.836 69.6772C98.9163 69.6772 97.0816 70.6585 95.3323 72.6212C93.6256 74.5412 92.1323 77.7625 90.8523 82.2852C90.0416 85.2292 89.6363 87.7678 89.6363 89.9012C89.6363 92.1625 90.0629 93.8905 90.9163 95.0852C91.8123 96.2372 93.0496 96.8132 94.6283 96.8132C95.9936 96.8132 97.0389 96.4932 97.7643 95.8532C98.5323 95.2132 99.1296 94.1038 99.5563 92.5252L100.004 90.9252C100.218 90.0718 100.324 89.4958 100.324 89.1972C100.324 88.6852 100.196 88.3225 99.9403 88.1092C99.7269 87.8958 99.3429 87.6612 98.7883 87.4052L96.5483 86.5732C95.5669 86.1892 95.0763 85.4852 95.0763 84.4612C95.0763 84.1625 95.0976 83.9278 95.1403 83.7572C95.3109 83.2025 95.6096 82.7972 96.0363 82.5412C96.5056 82.2852 97.2096 82.1572 98.1483 82.1572L117.476 82.2212C118.884 82.2212 119.588 82.6692 119.588 83.5652C119.588 83.7358 119.546 83.9918 119.46 84.3332C119.29 84.9732 119.012 85.4852 118.628 85.8692C118.244 86.2532 117.69 86.6372 116.964 87.0212L115.3 87.9812C114.874 88.2372 114.554 88.4932 114.34 88.7492C114.127 88.9625 113.978 89.2398 113.892 89.5812L110.5 101.421C110.074 102.829 109.583 103.768 109.028 104.237C108.516 104.706 107.876 104.941 107.108 104.941H104.42C103.396 104.941 102.543 104.728 101.86 104.301C101.22 103.874 100.687 103.042 100.26 101.805L99.6203 99.9492C96.5483 103.533 92.7083 105.325 88.1003 105.325ZM139.942 71.0852C144.848 71.0852 148.774 72.0025 151.718 73.8372C154.662 75.6292 156.134 78.3812 156.134 82.0932C156.134 83.5012 155.878 85.1012 155.366 86.8932L152.742 95.7252C152.699 95.8958 152.678 96.1092 152.678 96.3652C152.678 97.0478 152.955 97.3892 153.51 97.3892C154.022 97.3892 154.448 97.1758 154.79 96.7492C155.174 96.2798 155.43 96.0452 155.558 96.0452C155.771 96.0452 155.942 96.1945 156.07 96.4932C156.24 96.7918 156.326 97.1332 156.326 97.5172C156.368 98.6692 155.92 99.8425 154.982 101.037C154.086 102.232 152.87 103.213 151.334 103.981C149.798 104.749 148.112 105.133 146.278 105.133C144.059 105.133 142.16 104.728 140.582 103.917C139.003 103.106 137.915 101.912 137.318 100.333C136.038 101.869 134.523 103.064 132.774 103.917C131.024 104.728 129.147 105.133 127.142 105.133C124.88 105.133 122.982 104.706 121.446 103.853C119.91 102.957 118.758 101.826 117.99 100.461C117.264 99.0532 116.902 97.5812 116.902 96.0452C116.902 95.3625 116.966 94.7012 117.094 94.0612C117.776 91.1172 119.248 88.8985 121.51 87.4052C123.814 85.9118 126.544 85.1652 129.702 85.1652C133.243 85.1652 136.72 85.7198 140.134 86.8292L141.734 82.6052C142.288 80.8132 142.566 79.4265 142.566 78.4452C142.523 77.4212 142.182 76.6532 141.542 76.1412C140.902 75.6292 139.92 75.3732 138.598 75.3732C138.854 76.0558 138.982 76.7598 138.982 77.4852C138.982 79.0638 138.384 80.4292 137.19 81.5812C135.995 82.7332 134.288 83.3092 132.07 83.3092C129.979 83.3092 128.336 82.8612 127.142 81.9652C125.99 81.0265 125.414 79.8745 125.414 78.5092C125.414 76.3758 126.608 74.6052 128.998 73.1972C131.387 71.7892 135.035 71.0852 139.942 71.0852ZM136.358 90.4772C135.163 90.4772 134.182 90.9465 133.414 91.8852C132.688 92.7812 132.326 93.7625 132.326 94.8292C132.326 95.5118 132.475 96.0665 132.774 96.4932C133.115 96.9198 133.584 97.1332 134.182 97.1332C134.736 97.1332 135.334 96.9198 135.974 96.4932C136.656 96.0238 137.147 95.3412 137.446 94.4452L138.79 90.6692C138.064 90.5412 137.254 90.4772 136.358 90.4772ZM219.333 96.1092C219.247 96.2798 219.205 96.5358 219.205 96.8772C219.205 97.1758 219.269 97.4105 219.397 97.5812C219.567 97.7518 219.781 97.8372 220.037 97.8372C220.549 97.8372 220.975 97.6238 221.317 97.1972C221.701 96.7278 221.957 96.4932 222.085 96.4932C222.298 96.4932 222.469 96.6425 222.597 96.9412C222.725 97.1972 222.789 97.5172 222.789 97.9012C222.831 99.1385 222.426 100.354 221.573 101.549C220.719 102.701 219.461 103.661 217.797 104.429C216.175 105.154 214.213 105.517 211.909 105.517C209.093 105.517 206.853 104.877 205.189 103.597C203.525 102.274 202.671 100.525 202.629 98.3492C202.629 96.7705 203.013 94.9998 203.781 93.0372L207.301 83.8212C207.514 83.2665 207.621 82.8185 207.621 82.4772C207.621 81.9225 207.429 81.4958 207.045 81.1972C206.703 80.8558 206.277 80.6852 205.765 80.6852C205.039 80.6852 204.293 81.0052 203.525 81.6452C202.757 82.2852 202.074 83.2878 201.477 84.6532L197.957 96.1092C197.871 96.2798 197.829 96.5358 197.829 96.8772C197.829 97.1758 197.893 97.4105 198.021 97.5812C198.191 97.7518 198.405 97.8372 198.661 97.8372C199.173 97.8372 199.599 97.6238 199.941 97.1972C200.325 96.7278 200.581 96.4932 200.709 96.4932C200.922 96.4932 201.093 96.6425 201.221 96.9412C201.349 97.1972 201.413 97.5172 201.413 97.9012C201.455 99.1385 201.05 100.354 200.197 101.549C199.343 102.701 198.085 103.661 196.421 104.429C194.799 105.154 192.837 105.517 190.533 105.517C187.717 105.517 185.477 104.877 183.813 103.597C182.149 102.274 181.295 100.525 181.253 98.3492C181.253 96.7705 181.637 94.9998 182.405 93.0372L185.925 83.8212C186.138 83.2665 186.245 82.8185 186.245 82.4772C186.245 81.9225 186.053 81.4958 185.669 81.1972C185.327 80.8558 184.901 80.6852 184.389 80.6852C183.663 80.6852 182.917 81.0052 182.149 81.6452C181.381 82.2425 180.741 83.2238 180.229 84.5892L176.005 98.2852C175.834 98.7545 175.749 99.2025 175.749 99.6292C175.749 100.141 175.855 100.568 176.069 100.909C176.282 101.208 176.581 101.528 176.965 101.869C177.263 102.125 177.477 102.36 177.605 102.573C177.733 102.786 177.754 103.042 177.669 103.341C177.498 103.896 177.093 104.301 176.453 104.557C175.813 104.813 174.81 104.941 173.445 104.941H158.853C157.743 104.941 156.954 104.77 156.485 104.429C155.973 104.045 155.781 103.554 155.909 102.957C156.079 102.445 156.527 101.997 157.253 101.613C157.893 101.272 158.426 100.866 158.853 100.397C159.279 99.9278 159.642 99.1812 159.941 98.1572L165.637 79.6612C165.722 79.4478 165.765 79.1492 165.765 78.7652C165.765 78.2958 165.658 77.9332 165.445 77.6772C165.274 77.4212 164.975 77.1012 164.549 76.7172C164.122 76.3758 163.823 76.0772 163.653 75.8212C163.482 75.5652 163.461 75.2238 163.589 74.7972C163.845 73.8158 165.189 72.9625 167.621 72.2372C170.053 71.4692 172.591 71.0852 175.237 71.0852C177.327 71.0852 178.97 71.6612 180.165 72.8132C181.402 73.9652 181.999 75.5438 181.957 77.5492C183.706 75.1172 185.541 73.4318 187.461 72.4932C189.423 71.5545 191.535 71.0852 193.797 71.0852C196.271 71.0852 198.277 71.8105 199.813 73.2612C201.391 74.6692 202.266 76.5252 202.437 78.8292C204.271 75.9278 206.234 73.9225 208.325 72.8132C210.415 71.6612 212.698 71.0852 215.173 71.0852C217.775 71.0852 219.866 71.8745 221.445 73.4532C223.066 75.0318 223.877 77.0798 223.877 79.5972C223.877 80.9198 223.663 82.2212 223.237 83.5012L219.333 96.1092ZM246.727 70.7652C252.146 70.7652 256.071 71.6398 258.503 73.3892C260.935 75.0958 262.151 77.2932 262.151 79.9812C262.151 80.7918 262.066 81.5385 261.895 82.2212C261.255 85.0372 259.463 87.0638 256.519 88.3012C253.618 89.4958 250.183 90.0932 246.215 90.0932C244.21 90.0932 242.333 89.9652 240.583 89.7092C240.541 91.9278 241.138 93.4852 242.375 94.3812C243.613 95.2772 245.341 95.7252 247.559 95.7252C248.583 95.7252 249.565 95.6185 250.503 95.4052C251.442 95.1492 252.637 94.7865 254.087 94.3172C255.282 93.8905 256.093 93.6772 256.519 93.6772C256.989 93.6772 257.223 93.9545 257.223 94.5092C257.266 96.0025 256.711 97.5812 255.559 99.2452C254.407 100.866 252.701 102.253 250.439 103.405C248.178 104.557 245.447 105.133 242.247 105.133C237.511 105.133 233.629 103.938 230.599 101.549C227.57 99.1598 226.055 95.6825 226.055 91.1172C226.055 89.8372 226.226 88.3438 226.567 86.6372C227.634 81.3892 229.959 77.4425 233.543 74.7972C237.17 72.1092 241.565 70.7652 246.727 70.7652ZM241.031 85.8692C241.202 85.9118 241.437 85.9332 241.735 85.9332C243.527 85.9332 244.893 85.1012 245.831 83.4372C246.77 81.7732 247.218 79.9172 247.175 77.8692C247.133 76.6745 246.791 76.0772 246.151 76.0772C245.682 76.0772 245.127 76.4612 244.487 77.2292C243.847 77.9545 243.207 79.0638 242.567 80.5572C241.97 82.0505 241.458 83.8212 241.031 85.8692Z" fill="black"/>
<path d="M25.186 4.992C27.5753 4.992 29.7727 5.29066 31.778 5.888C33.826 6.44266 35.8953 7.33866 37.986 8.576L39.458 7.36C40.482 6.54933 41.314 5.99466 41.954 5.696C42.6367 5.39733 43.4047 5.248 44.258 5.248C45.282 5.248 46.0927 5.48266 46.69 5.952C47.2873 6.37867 47.586 7.01867 47.586 7.872C47.586 8.21333 47.522 8.576 47.394 8.96L44.706 17.792C44.4073 18.816 44.0233 19.5413 43.554 19.968C43.1273 20.3947 42.466 20.608 41.57 20.608C40.6313 20.608 39.7993 20.3307 39.074 19.776C38.3913 19.1787 37.3033 17.984 35.81 16.192C34.3167 14.4853 32.9513 13.2907 31.714 12.608C30.5193 11.8827 29.282 11.52 28.002 11.52C27.0633 11.52 26.274 11.84 25.634 12.48C24.994 13.0773 24.674 13.824 24.674 14.72C24.674 15.744 25.186 16.704 26.21 17.6C27.234 18.4533 28.834 19.5413 31.01 20.864C33.2287 22.1867 35.0633 23.3813 36.514 24.448C37.9647 25.5147 39.202 26.8373 40.226 28.416C41.25 29.9947 41.762 31.808 41.762 33.856C41.762 35.1787 41.5487 36.5013 41.122 37.824C40.098 41.2373 38.114 43.84 35.17 45.632C32.226 47.3813 28.7913 48.256 24.866 48.256C21.922 48.256 19.4473 47.9147 17.442 47.232C15.4367 46.5493 13.3887 45.3973 11.298 43.776L8.994 45.696C7.92733 46.592 7.05267 47.2107 6.37 47.552C5.68733 47.8507 4.91933 48 4.066 48C3.08467 48 2.29533 47.7653 1.698 47.296C1.14333 46.8267 0.866 46.1867 0.866 45.376C0.866 44.9493 0.951333 44.5013 1.122 44.032L4.258 34.496C4.59933 33.3867 5.06867 32.5973 5.666 32.128C6.26333 31.6587 7.03133 31.424 7.97 31.424C8.95133 31.424 9.826 31.7653 10.594 32.448C11.4047 33.1307 12.45 34.368 13.73 36.16C15.0953 38.1227 16.354 39.488 17.506 40.256C18.7007 41.024 20.1087 41.408 21.73 41.408C22.882 41.408 23.7567 41.2373 24.354 40.896C24.994 40.512 25.442 39.9147 25.698 39.104C25.7833 38.8907 25.826 38.5707 25.826 38.144C25.826 37.12 25.3353 36.1813 24.354 35.328C23.3727 34.4747 21.858 33.4507 19.81 32.256C17.634 30.9333 15.8633 29.76 14.498 28.736C13.1327 27.6693 11.938 26.3467 10.914 24.768C9.93267 23.1893 9.442 21.3333 9.442 19.2C9.442 17.7067 9.67667 16.2347 10.146 14.784C11.042 11.84 12.8767 9.472 15.65 7.68C18.4233 5.888 21.602 4.992 25.186 4.992ZM67.723 14.144C72.6297 14.144 76.555 15.0613 79.499 16.896C82.443 18.688 83.915 21.44 83.915 25.152C83.915 26.56 83.659 28.16 83.147 29.952L80.523 38.784C80.4803 38.9547 80.459 39.168 80.459 39.424C80.459 40.1067 80.7363 40.448 81.291 40.448C81.803 40.448 82.2297 40.2347 82.571 39.808C82.955 39.3387 83.211 39.104 83.339 39.104C83.5523 39.104 83.723 39.2533 83.851 39.552C84.0217 39.8507 84.107 40.192 84.107 40.576C84.1497 41.728 83.7017 42.9013 82.763 44.096C81.867 45.2907 80.651 46.272 79.115 47.04C77.579 47.808 75.8937 48.192 74.059 48.192C71.8403 48.192 69.9417 47.7867 68.363 46.976C66.7843 46.1653 65.6963 44.9707 65.099 43.392C63.819 44.928 62.3043 46.1227 60.555 46.976C58.8057 47.7867 56.9283 48.192 54.923 48.192C52.6617 48.192 50.763 47.7653 49.227 46.912C47.691 46.016 46.539 44.8853 45.771 43.52C45.0457 42.112 44.683 40.64 44.683 39.104C44.683 38.4213 44.747 37.76 44.875 37.12C45.5577 34.176 47.0297 31.9573 49.291 30.464C51.595 28.9707 54.3257 28.224 57.483 28.224C61.0243 28.224 64.5017 28.7787 67.915 29.888L69.515 25.664C70.0697 23.872 70.347 22.4853 70.347 21.504C70.3043 20.48 69.963 19.712 69.323 19.2C68.683 18.688 67.7017 18.432 66.379 18.432C66.635 19.1147 66.763 19.8187 66.763 20.544C66.763 22.1227 66.1657 23.488 64.971 24.64C63.7763 25.792 62.0697 26.368 59.851 26.368C57.7603 26.368 56.1177 25.92 54.923 25.024C53.771 24.0853 53.195 22.9333 53.195 21.568C53.195 19.4347 54.3897 17.664 56.779 16.256C59.1683 14.848 62.8163 14.144 67.723 14.144ZM64.139 33.536C62.9443 33.536 61.963 34.0053 61.195 34.944C60.4697 35.84 60.107 36.8213 60.107 37.888C60.107 38.5707 60.2563 39.1253 60.555 39.552C60.8963 39.9787 61.3657 40.192 61.963 40.192C62.5177 40.192 63.115 39.9787 63.755 39.552C64.4377 39.0827 64.9283 38.4 65.227 37.504L66.571 33.728C65.8457 33.6 65.035 33.536 64.139 33.536ZM117.674 14.144C120.063 14.144 121.962 14.8693 123.37 16.32C124.821 17.7707 125.546 19.5627 125.546 21.696C125.546 22.5067 125.461 23.2533 125.29 23.936C124.863 25.6853 124.053 27.0293 122.858 27.968C121.663 28.9067 120.234 29.376 118.57 29.376C116.949 29.376 115.711 28.992 114.858 28.224C114.047 27.456 113.322 26.432 112.682 25.152C112.341 24.4267 112.021 23.8933 111.722 23.552C111.423 23.2107 111.082 23.04 110.698 23.04C110.271 23.04 109.887 23.2107 109.546 23.552C109.247 23.8933 108.97 24.4907 108.714 25.344L103.786 41.344C103.701 41.5573 103.658 41.8773 103.658 42.304C103.658 42.8587 103.807 43.328 104.106 43.712C104.447 44.0533 104.895 44.3947 105.45 44.736C105.962 45.0773 106.303 45.3547 106.474 45.568C106.645 45.7813 106.709 46.0587 106.666 46.4C106.581 46.9547 106.261 47.36 105.706 47.616C105.194 47.872 104.298 48 103.018 48H86.634C85.5247 48 84.7353 47.8293 84.266 47.488C83.754 47.104 83.562 46.6133 83.69 46.016C83.8607 45.504 84.3087 45.056 85.034 44.672C85.674 44.3307 86.2073 43.9253 86.634 43.456C87.0607 42.9867 87.4233 42.24 87.722 41.216L93.418 22.72C93.5033 22.5067 93.546 22.208 93.546 21.824C93.546 21.3547 93.4393 20.992 93.226 20.736C93.0553 20.48 92.7567 20.16 92.33 19.776C91.9033 19.4347 91.6047 19.136 91.434 18.88C91.2633 18.624 91.242 18.2827 91.37 17.856C91.626 16.8747 92.97 16.0213 95.402 15.296C97.834 14.528 100.373 14.144 103.018 14.144C104.767 14.144 106.218 14.5493 107.37 15.36C108.522 16.128 109.269 17.2373 109.61 18.688C111.658 15.6587 114.346 14.144 117.674 14.144ZM144.411 14.144C149.317 14.144 153.243 15.0613 156.187 16.896C159.131 18.688 160.603 21.44 160.603 25.152C160.603 26.56 160.347 28.16 159.835 29.952L157.211 38.784C157.168 38.9547 157.147 39.168 157.147 39.424C157.147 40.1067 157.424 40.448 157.979 40.448C158.491 40.448 158.917 40.2347 159.259 39.808C159.643 39.3387 159.899 39.104 160.027 39.104C160.24 39.104 160.411 39.2533 160.539 39.552C160.709 39.8507 160.795 40.192 160.795 40.576C160.837 41.728 160.389 42.9013 159.451 44.096C158.555 45.2907 157.339 46.272 155.803 47.04C154.267 47.808 152.581 48.192 150.747 48.192C148.528 48.192 146.629 47.7867 145.051 46.976C143.472 46.1653 142.384 44.9707 141.787 43.392C140.507 44.928 138.992 46.1227 137.243 46.976C135.493 47.7867 133.616 48.192 131.611 48.192C129.349 48.192 127.451 47.7653 125.915 46.912C124.379 46.016 123.227 44.8853 122.459 43.52C121.733 42.112 121.37 40.64 121.37 39.104C121.37 38.4213 121.434 37.76 121.562 37.12C122.245 34.176 123.717 31.9573 125.979 30.464C128.283 28.9707 131.013 28.224 134.171 28.224C137.712 28.224 141.189 28.7787 144.603 29.888L146.203 25.664C146.757 23.872 147.035 22.4853 147.035 21.504C146.992 20.48 146.651 19.712 146.011 19.2C145.371 18.688 144.389 18.432 143.067 18.432C143.323 19.1147 143.451 19.8187 143.451 20.544C143.451 22.1227 142.853 23.488 141.659 24.64C140.464 25.792 138.757 26.368 136.539 26.368C134.448 26.368 132.805 25.92 131.611 25.024C130.459 24.0853 129.883 22.9333 129.883 21.568C129.883 19.4347 131.077 17.664 133.467 16.256C135.856 14.848 139.504 14.144 144.411 14.144ZM140.827 33.536C139.632 33.536 138.651 34.0053 137.883 34.944C137.157 35.84 136.795 36.8213 136.795 37.888C136.795 38.5707 136.944 39.1253 137.243 39.552C137.584 39.9787 138.053 40.192 138.651 40.192C139.205 40.192 139.803 39.9787 140.443 39.552C141.125 39.0827 141.616 38.4 141.915 37.504L143.259 33.728C142.533 33.6 141.723 33.536 140.827 33.536ZM202.554 39.168C202.468 39.3387 202.426 39.5947 202.426 39.936C202.426 40.2347 202.49 40.4693 202.618 40.64C202.788 40.8107 203.002 40.896 203.258 40.896C203.77 40.896 204.196 40.6827 204.538 40.256C204.922 39.7867 205.178 39.552 205.306 39.552C205.519 39.552 205.69 39.7013 205.818 40C205.946 40.256 206.01 40.576 206.01 40.96C206.052 42.1973 205.647 43.4133 204.794 44.608C203.94 45.76 202.682 46.72 201.018 47.488C199.396 48.2133 197.434 48.576 195.13 48.576C192.314 48.576 190.074 47.936 188.41 46.656C186.746 45.3333 185.892 43.584 185.85 41.408C185.85 39.8293 186.234 38.0587 187.002 36.096L190.522 26.88C190.735 26.3253 190.842 25.8773 190.842 25.536C190.842 24.9813 190.65 24.5547 190.266 24.256C189.924 23.9147 189.498 23.744 188.986 23.744C188.047 23.744 187.151 24.192 186.298 25.088C185.444 25.9413 184.826 27.008 184.442 28.288L180.474 41.344C180.303 41.8133 180.218 42.2613 180.218 42.688C180.218 43.2 180.324 43.6267 180.538 43.968C180.751 44.2667 181.05 44.5867 181.434 44.928C181.732 45.184 181.946 45.4187 182.074 45.632C182.202 45.8453 182.223 46.1013 182.138 46.4C181.967 46.9547 181.562 47.36 180.922 47.616C180.282 47.872 179.279 48 177.914 48H163.322C162.212 48 161.423 47.8293 160.953 47.488C160.441 47.104 160.249 46.6133 160.377 46.016C160.548 45.504 160.996 45.056 161.721 44.672C162.361 44.3307 162.895 43.9253 163.322 43.456C163.748 42.9867 164.111 42.24 164.41 41.216L170.106 22.72C170.191 22.5067 170.234 22.208 170.234 21.824C170.234 21.3547 170.127 20.992 169.914 20.736C169.743 20.48 169.444 20.16 169.018 19.776C168.591 19.4347 168.292 19.136 168.122 18.88C167.951 18.624 167.93 18.2827 168.058 17.856C168.314 16.8747 169.658 16.0213 172.09 15.296C174.522 14.528 177.06 14.144 179.706 14.144C181.839 14.144 183.524 14.7413 184.762 15.936C185.999 17.088 186.554 18.7093 186.426 20.8C188.175 18.2827 190.031 16.5547 191.994 15.616C193.956 14.6347 196.09 14.144 198.394 14.144C200.996 14.144 203.087 14.9333 204.666 16.512C206.287 18.0907 207.098 20.1387 207.098 22.656C207.098 23.9787 206.884 25.28 206.458 26.56L202.554 39.168ZM247.034 3.712C248.399 3.712 249.722 4.01066 251.002 4.608C252.325 5.16267 253.391 5.952 254.202 6.976C255.055 7.95733 255.482 9.024 255.482 10.176C255.482 12.6933 253.775 13.952 250.362 13.952C249.381 13.952 248.613 13.888 248.058 13.76C247.546 13.5893 246.927 13.3333 246.202 12.992C246.074 13.2907 246.01 13.7173 246.01 14.272C246.01 14.9547 246.117 15.7653 246.33 16.704C246.586 17.6427 246.885 18.5173 247.226 19.328C248.122 20.6507 248.57 22.2293 248.57 24.064C248.57 24.8747 248.463 25.856 248.25 27.008C247.738 29.2267 246.607 31.2533 244.858 33.088C243.151 34.9227 240.933 36.3733 238.202 37.44C235.514 38.464 232.549 38.976 229.306 38.976C226.831 38.976 224.506 38.8053 222.33 38.464C221.69 39.0187 221.37 39.7013 221.37 40.512C221.37 41.0667 221.626 41.536 222.138 41.92C222.65 42.2613 223.503 42.432 224.698 42.432H234.298C237.583 42.432 240.143 43.008 241.978 44.16C243.813 45.2693 244.73 46.8693 244.73 48.96C244.73 49.728 244.602 50.5173 244.346 51.328C243.834 52.992 242.661 54.528 240.826 55.936C239.034 57.3867 236.495 58.56 233.21 59.456C229.925 60.352 225.935 60.8 221.242 60.8C217.061 60.8 213.519 60.4373 210.618 59.712C207.717 58.9867 205.562 57.984 204.154 56.704C202.703 55.4667 201.978 54.08 201.978 52.544C201.978 52.2027 202.063 51.6907 202.234 51.008C202.618 49.7707 203.493 48.768 204.858 48C206.181 47.1893 208.378 46.656 211.45 46.4C210.426 45.4187 209.914 44.2453 209.914 42.88C209.914 42.4107 209.978 41.92 210.106 41.408C210.789 39.1893 212.794 37.5467 216.122 36.48C212.922 34.7307 211.322 32.1707 211.322 28.8C211.322 27.8613 211.45 26.88 211.706 25.856C212.218 23.6373 213.349 21.632 215.098 19.84C216.847 18.0053 219.087 16.5547 221.818 15.488C224.549 14.4213 227.535 13.888 230.778 13.888C235.855 13.888 239.845 14.5493 242.746 15.872C242.106 14.8907 241.594 13.8453 241.21 12.736C240.869 11.584 240.698 10.5387 240.698 9.6C240.698 7.97867 241.21 6.592 242.234 5.44C243.301 4.288 244.901 3.712 247.034 3.712ZM233.146 26.432C233.829 24.256 234.17 22.592 234.17 21.44C234.17 19.9893 233.551 19.264 232.314 19.264C231.247 19.264 230.309 19.7973 229.498 20.864C228.73 21.888 227.941 23.744 227.13 26.432C226.447 28.6507 226.106 30.336 226.106 31.488C226.106 32.896 226.703 33.6 227.898 33.6C228.965 33.6 229.903 33.0667 230.714 32C231.525 30.9333 232.335 29.0773 233.146 26.432ZM220.41 48.896C219.215 48.896 218.127 48.832 217.146 48.704C216.634 49.344 216.378 50.1973 216.378 51.264C216.421 52.3307 216.847 53.0987 217.658 53.568C218.511 54.0373 219.813 54.272 221.562 54.272C223.695 54.272 225.423 53.952 226.746 53.312C228.111 52.672 228.794 51.7547 228.794 50.56C228.794 50.048 228.602 49.6427 228.218 49.344C227.834 49.0453 227.279 48.896 226.554 48.896H220.41ZM288.232 39.168C288.147 39.3387 288.104 39.5947 288.104 39.936C288.104 40.2347 288.168 40.4693 288.296 40.64C288.467 40.8107 288.68 40.896 288.936 40.896C289.448 40.896 289.875 40.6827 290.216 40.256C290.6 39.7867 290.856 39.552 290.984 39.552C291.197 39.552 291.368 39.7013 291.496 40C291.624 40.256 291.688 40.576 291.688 40.96C291.731 42.1973 291.325 43.4133 290.472 44.608C289.619 45.76 288.36 46.72 286.696 47.488C285.075 48.2133 283.112 48.576 280.808 48.576C277.992 48.576 275.752 47.936 274.088 46.656C272.424 45.3333 271.571 43.584 271.528 41.408C271.528 39.8293 271.912 38.0587 272.68 36.096L276.2 26.88C276.413 26.3253 276.52 25.8773 276.52 25.536C276.52 24.9813 276.328 24.5547 275.944 24.256C275.603 23.9147 275.176 23.744 274.664 23.744C273.853 23.744 273.021 24.128 272.168 24.896C271.357 25.6213 270.696 26.816 270.184 28.48V28.352L266.152 41.344C266.024 41.856 265.96 42.304 265.96 42.688C265.96 43.2427 266.067 43.6907 266.28 44.032C266.493 44.3307 266.792 44.6293 267.176 44.928C267.475 45.2267 267.688 45.4827 267.816 45.696C267.944 45.8667 267.965 46.1013 267.88 46.4C267.667 46.9547 267.24 47.36 266.6 47.616C265.96 47.872 264.979 48 263.656 48H249.064C247.955 48 247.144 47.8293 246.632 47.488C246.12 47.104 245.949 46.6133 246.12 46.016C246.291 45.504 246.739 45.056 247.464 44.672C248.104 44.3307 248.637 43.9253 249.064 43.456C249.491 42.9867 249.853 42.24 250.152 41.216L259.88 9.28C260.008 8.896 260.072 8.576 260.072 8.32C260.072 7.85066 259.944 7.46666 259.688 7.168C259.475 6.86933 259.176 6.57066 258.792 6.272C258.365 5.93067 258.045 5.632 257.832 5.376C257.661 5.12 257.64 4.77866 257.768 4.352C258.024 3.37066 259.368 2.51733 261.8 1.792C264.232 1.06666 266.771 0.703999 269.416 0.703999C271.891 0.703999 273.704 1.17333 274.856 2.112C276.051 3.05066 276.648 4.33066 276.648 5.952C276.648 6.89066 276.499 7.808 276.2 8.704L272.744 19.968C274.408 17.792 276.157 16.2773 277.992 15.424C279.869 14.5707 281.896 14.144 284.072 14.144C286.675 14.144 288.765 14.9333 290.344 16.512C291.965 18.0907 292.776 20.1387 292.776 22.656C292.776 23.9787 292.563 25.28 292.136 26.56L288.232 39.168ZM315.634 13.824C321.052 13.824 324.978 14.6987 327.41 16.448C329.842 18.1547 331.058 20.352 331.058 23.04C331.058 23.8507 330.972 24.5973 330.802 25.28C330.162 28.096 328.37 30.1227 325.426 31.36C322.524 32.5547 319.09 33.152 315.122 33.152C313.116 33.152 311.239 33.024 309.49 32.768C309.447 34.9867 310.044 36.544 311.282 37.44C312.519 38.336 314.247 38.784 316.466 38.784C317.49 38.784 318.471 38.6773 319.41 38.464C320.348 38.208 321.543 37.8453 322.994 37.376C324.188 36.9493 324.999 36.736 325.426 36.736C325.895 36.736 326.13 37.0133 326.13 37.568C326.172 39.0613 325.618 40.64 324.466 42.304C323.314 43.9253 321.607 45.312 319.346 46.464C317.084 47.616 314.354 48.192 311.154 48.192C306.418 48.192 302.535 46.9973 299.506 44.608C296.476 42.2187 294.962 38.7413 294.962 34.176C294.962 32.896 295.132 31.4027 295.474 29.696C296.54 24.448 298.866 20.5013 302.45 17.856C306.076 15.168 310.471 13.824 315.634 13.824ZM309.938 28.928C310.108 28.9707 310.343 28.992 310.642 28.992C312.434 28.992 313.799 28.16 314.738 26.496C315.676 24.832 316.124 22.976 316.082 20.928C316.039 19.7333 315.698 19.136 315.058 19.136C314.588 19.136 314.034 19.52 313.394 20.288C312.754 21.0133 312.114 22.1227 311.474 23.616C310.876 25.1093 310.364 26.88 309.938 28.928Z" fill="black"/>
</svg>
